<?xml version="1.0" encoding="utf-8"?>
<!-- Generator: Adobe Illustrator 16.0.0, SVG Export Plug-In . SVG Version: 6.00 Build 0)  -->
<!DOCTYPE svg PUBLIC "-//W3C//DTD SVG 1.1//EN" "http://www.w3.org/Graphics/SVG/1.1/DTD/svg11.dtd">
<svg version="1.1" id="图层_3" xmlns="http://www.w3.org/2000/svg" xmlns:xlink="http://www.w3.org/1999/xlink" x="0px" y="0px"
	 width="192px" height="192px" viewBox="0 0 192 192" enable-background="new 0 0 192 192" xml:space="preserve">
<path fill="#4E5FBB" d="M160.75,20H31.25C25.034,20,20,25.035,20,31.25v129.5c0,6.216,5.034,11.25,11.25,11.25h129.5
	c6.216,0,11.25-5.034,11.25-11.25V31.25C172,25.035,166.966,20,160.75,20z"/>
<g>
	<path fill="#FBEB3D" d="M102.163,78.297c0,12.332,10.01,22.342,22.343,22.342c12.332,0,22.313-10.01,22.313-22.342
		c0-12.332-10.009-22.34-22.341-22.34S102.163,65.965,102.163,78.297z"/>
	<path fill="#FFFFFF" d="M126.746,93.727c-0.213,0-0.427,0.025-0.667,0.025c-0.106,0-0.214-0.025-0.318-0.025h-10.599
		c-1.682-12.52-12.411-22.182-25.384-22.182c-12.652,0-23.169,9.183-25.251,21.247c-12.065,0.828-21.566,10.837-21.566,23.116
		c0,12.786,10.383,23.168,23.168,23.168c0.48,0,0.987-0.027,1.469-0.054c0.321,0.026,0.667,0.054,1.014,0.054h57.174
		c0.107,0,0.215-0.027,0.32-0.027c0.214,0,0.428,0.027,0.67,0.027c12.517,0,22.659-10.143,22.659-22.661
		C149.408,103.87,139.264,93.727,126.746,93.727L126.746,93.727z"/>
</g>
</svg>
